<!-- <?xml version="1.0" standalone="no"?>
<svg xmlns="http://www.w3.org/2000/svg" viewBox="0 0 1440 320">
<path fill="#20639b" fill-opacity="1" d="M0,64L60,58.7C120,53,240,43,360,37.3C480,32,600,32,720,64C840,96,960,160,1080,192C1200,224,1320,224,1380,224L1440,224L1440,0L1380,0C1320,0,1200,0,1080,0C960,0,840,0,720,0C600,0,480,0,360,0C240,0,120,0,60,0L0,0Z"></path></svg> -->
<svg width="1440" height="auto" xmlns="http://www.w3.org/2000/svg" xmlns:svg="http://www.w3.org/2000/svg">
 <g>
  <title>Layer 1</title>
    <path transform="rotate(-180 720,75.99999237060547) " fill="#00203F" d="m0,43.42857l60,-3.59643c60,-3.86786 180,-10.65357 300,-14.52143c120,-3.59643 240,-3.59643 360,18.11786c120,21.71428 240,65.14285 360,86.85714c120,21.71428 240,21.71428 300,21.71428l60,0l0,-151.99999l-60,0c-60,0 -180,0 -300,0c-120,0 -240,0 -360,0c-120,0 -240,0 -360,0c-120,0 -240,0 -300,0l-60,0l0,43.42857z"
     id="svg_1"/>

  <!-- <path id="svg_1" d="m0,43.42857l60,-3.59643c60,-3.86786 180,-10.65357 300,-14.52143c120,-3.59643 240,-3.59643 360,18.11786c120,21.71428 240,65.14285 360,86.85714c120,21.71428 240,21.71428 300,21.71428l60,0l0,-151.99999l-60,0c-60,0 -180,0 -300,0c-120,0 -240,0 -360,0c-120,0 -240,0 -360,0c-120,0 -240,0 -300,0l-60,0l0,43.42857z" 
  fill="#0e4a8b"/> -->
 </g>
</svg>